<?xml version="1.0" standalone="no"?>
<!DOCTYPE svg PUBLIC "-//W3C//DTD SVG 20010904//EN"
 "http://www.w3.org/TR/2001/REC-SVG-20010904/DTD/svg10.dtd">
<svg version="1.0" xmlns="http://www.w3.org/2000/svg"
 width="800.000000pt" height="800.000000pt" viewBox="0 0 800.000000 800.000000"
 preserveAspectRatio="xMidYMid meet">
<metadata>
Created by potrace 1.14, written by Peter Selinger 2001-2017
</metadata>
<g transform="translate(0.000000,800.000000) scale(0.100000,-0.100000)"
fill="#000000" stroke="none">
<path d="M4840 7071 c0 -19 73 -96 112 -118 28 -15 60 -17 74 -3 7 7 16 4 29
-10 23 -26 35 -26 28 1 -3 11 -24 32 -47 46 -22 14 -45 32 -49 39 -4 8 -13 14
-18 14 -6 0 -17 7 -25 15 -9 8 -24 15 -34 15 -10 0 -22 5 -25 10 -11 18 -45
11 -45 -9z"/>
<path d="M3725 7019 c-4 -5 -19 -8 -33 -7 -30 2 -52 -8 -52 -23 0 -5 35 -9 84
-7 79 2 82 3 62 18 -30 23 -54 31 -61 19z"/>
<path d="M3825 6999 c-7 -11 48 -69 65 -69 5 0 10 -7 10 -15 0 -24 46 -48 79
-42 21 4 34 1 46 -13 10 -11 24 -20 32 -20 8 0 13 -11 13 -29 0 -22 6 -31 23
-37 12 -4 37 -20 55 -35 18 -16 42 -29 53 -29 15 0 19 -5 15 -16 -3 -8 -1 -25
5 -36 6 -11 13 -46 14 -77 2 -31 4 -59 4 -63 1 -4 12 -15 25 -23 18 -12 37
-14 75 -9 45 6 51 9 51 30 0 14 -12 32 -30 46 -28 20 -30 26 -24 65 6 41 5 43
-19 43 -14 0 -29 -4 -32 -10 -3 -5 -10 -10 -16 -10 -5 0 -9 5 -9 10 0 6 7 10
15 10 24 0 17 19 -10 26 -27 7 -31 14 -15 30 16 16 -57 104 -85 104 -31 0 -39
12 -16 25 29 15 11 36 -37 42 -28 4 -46 13 -56 28 -11 16 -32 25 -78 34 -35 7
-78 21 -96 32 -38 22 -48 23 -57 8z m265 -139 c0 -5 -4 -10 -10 -10 -5 0 -10
5 -10 10 0 6 5 10 10 10 6 0 10 -4 10 -10z"/>
<path d="M3538 6983 c7 -3 16 -2 19 1 4 3 -2 6 -13 5 -11 0 -14 -3 -6 -6z"/>
<path d="M3456 6961 c-25 -12 -34 -21 -26 -26 14 -9 92 24 84 36 -7 12 -13 11
-58 -10z"/>
<path d="M3310 6890 c-8 -5 -12 -12 -8 -15 10 -10 49 5 43 16 -8 11 -16 11
-35 -1z"/>
<path d="M3421 6678 c-13 -32 -65 -83 -106 -102 -46 -22 -47 -47 -3 -44 30 3
33 0 38 -32 3 -19 10 -35 16 -35 14 0 74 51 74 64 0 16 20 23 34 12 9 -8 24
-5 55 10 23 11 46 17 51 14 5 -3 39 -3 75 1 70 7 79 18 44 50 -12 10 -26 30
-31 44 l-10 25 -9 -23 c-10 -26 -41 -42 -47 -24 -5 16 -32 15 -32 -1 0 -13
-40 -37 -60 -37 -17 0 -11 23 12 47 21 23 21 23 1 23 -11 0 -26 7 -33 15 -19
23 -59 19 -69 -7z m59 -18 c0 -5 -4 -10 -10 -10 -5 0 -10 5 -10 10 0 6 5 10
10 10 6 0 10 -4 10 -10z"/>
<path d="M4582 6633 c-28 -5 -56 -47 -49 -71 20 -63 37 -97 60 -118 14 -13 28
-32 32 -43 3 -11 19 -22 35 -26 17 -4 33 -13 38 -21 10 -18 80 -54 104 -54 28
0 40 44 27 92 -18 67 -57 148 -81 168 -23 19 -133 81 -139 79 -2 -1 -14 -4
-27 -6z m68 -83 c0 -5 -4 -10 -9 -10 -6 0 -13 5 -16 10 -3 6 1 10 9 10 9 0 16
-4 16 -10z"/>
<path d="M3555 6496 c-11 -9 -41 -16 -66 -16 -53 0 -107 -31 -127 -72 -14 -31
-33 -28 -52 6 -14 27 -70 41 -101 26 -47 -24 -66 -34 -86 -48 -23 -14 -23 -14
-17 32 6 41 5 46 -12 46 -54 0 -182 -137 -171 -182 4 -12 0 -18 -12 -18 -18 0
-87 -53 -111 -85 -8 -11 -30 -37 -49 -58 -38 -43 -35 -51 26 -63 24 -4 40 0
63 16 40 29 60 21 25 -10 -15 -14 -45 -42 -66 -62 -44 -45 -49 -46 -49 -14 0
34 -23 50 -50 36 -64 -34 -90 -91 -57 -119 25 -20 73 -25 80 -7 9 22 27 20 27
-4 0 -10 5 -31 12 -44 9 -21 8 -29 -6 -45 -15 -16 -21 -17 -44 -7 -15 7 -49
12 -77 12 l-50 -1 -3 -38 c-3 -32 -6 -36 -21 -28 -15 9 -35 9 -84 2 -5 0 -6
-9 -3 -18 4 -14 -7 -24 -47 -42 -28 -13 -63 -34 -77 -48 -14 -13 -42 -40 -64
-59 -30 -28 -37 -41 -33 -60 5 -30 -17 -43 -44 -26 -34 21 -65 13 -104 -25
-20 -21 -44 -54 -52 -73 -8 -19 -24 -41 -34 -48 -29 -20 -99 -145 -99 -175 0
-33 24 -45 52 -28 32 20 30 7 -6 -35 -32 -38 -33 -39 -18 -74 16 -39 31 -52
50 -45 7 2 12 -4 12 -15 0 -17 -7 -20 -45 -20 -25 0 -45 -3 -45 -6 0 -3 7 -18
17 -34 15 -26 15 -30 -4 -61 -30 -49 -37 -93 -18 -109 14 -11 14 -15 0 -36 -8
-13 -12 -29 -9 -37 3 -8 0 -18 -5 -22 -20 -12 -1 -25 27 -19 57 13 93 37 174
118 73 74 86 84 111 79 20 -4 27 -1 27 11 0 12 7 14 33 9 56 -12 71 -9 75 12
3 11 9 23 15 27 8 5 7 14 -1 33 -13 29 -7 49 26 79 22 19 42 15 42 -10 0 -8 7
-14 15 -14 8 0 15 -3 15 -6 0 -12 -24 -50 -37 -57 -14 -9 -9 -71 8 -93 6 -7 3
-16 -6 -24 -8 -7 -15 -16 -15 -21 0 -12 71 -40 90 -36 8 2 27 -2 41 -9 55 -27
408 -5 548 35 41 12 93 21 116 21 77 0 306 -51 433 -96 145 -53 217 -74 248
-74 11 0 50 -22 85 -48 35 -27 79 -57 97 -67 34 -21 41 -35 17 -35 -8 0 -15 4
-15 8 0 18 -106 42 -172 40 -63 -3 -85 -11 -56 -20 7 -3 8 -10 3 -17 -5 -9
-21 -12 -51 -7 -55 7 -74 0 -74 -28 0 -16 -6 -21 -23 -21 -13 1 -28 4 -34 8
-14 9 -23 -2 -23 -26 0 -14 -5 -17 -17 -12 -24 9 -23 9 -61 0 -26 -6 -31 -11
-27 -26 6 -17 2 -18 -39 -13 -45 7 -46 6 -52 -25 -5 -25 -12 -31 -31 -31 -14
0 -49 -7 -79 -16 -58 -17 -77 -39 -76 -85 0 -22 -4 -28 -28 -31 -16 -3 -35 0
-42 6 -7 6 -4 0 7 -13 l20 -24 -37 7 c-61 11 -101 -27 -66 -62 9 -9 7 -12 -10
-12 -19 0 -21 -4 -16 -27 6 -22 4 -25 -10 -20 -10 4 -21 7 -26 7 -4 0 -10 9
-13 21 -5 20 -8 18 -39 -17 -18 -20 -32 -44 -30 -52 2 -8 -1 -11 -8 -7 -7 4
-24 2 -38 -5 -15 -7 -37 -17 -49 -23 -14 -6 -23 -19 -23 -33 0 -13 -6 -27 -13
-31 -7 -4 -23 -30 -35 -58 l-21 -50 -7 32 c-8 38 -33 52 -41 22 -4 -14 -12
-19 -24 -16 -19 5 -28 -16 -29 -73 -1 -33 -2 -33 -11 -11 -7 19 -12 22 -21 13
-7 -7 -20 -12 -29 -12 -15 0 -17 -7 -12 -55 4 -38 2 -55 -6 -55 -6 0 -11 13
-11 30 0 38 -25 53 -60 35 -35 -18 -68 -57 -53 -62 15 -6 5 -33 -22 -55 -22
-19 -46 -23 -60 -9 -6 5 -26 12 -45 16 -31 6 -37 3 -52 -23 -10 -17 -18 -40
-18 -51 0 -22 -19 -28 -37 -10 -16 16 -78 7 -79 -11 -2 -31 -4 -33 -18 -15
-18 25 -50 13 -43 -16 4 -14 -3 -30 -19 -48 l-26 -26 -15 23 c-21 30 -43 28
-43 -3 0 -27 -9 -32 -28 -13 -8 8 -14 5 -23 -15 -14 -30 -44 -36 -53 -10 -6
14 -12 11 -40 -20 -23 -26 -38 -35 -50 -31 -11 4 -26 -2 -40 -15 -19 -18 -31
-21 -59 -16 -44 9 -91 -15 -112 -55 -17 -33 -25 -36 -43 -18 -9 9 -17 8 -37
-2 -14 -7 -25 -18 -25 -24 0 -7 -7 -21 -15 -34 -13 -18 -19 -20 -35 -10 -24
15 -50 -4 -50 -38 0 -33 -16 -38 -49 -15 l-29 21 -42 -31 c-33 -24 -44 -28
-56 -18 -13 10 -13 14 1 29 30 33 9 70 -23 38 -17 -17 -25 -3 -12 22 9 18 9
28 -1 47 -10 18 -10 31 -2 53 6 16 7 34 2 41 -6 10 -9 11 -9 2 0 -7 -7 -13
-16 -13 -13 0 -15 7 -10 34 4 20 2 37 -3 41 -7 3 -5 18 5 38 22 46 8 170 -19
175 -22 4 -136 -109 -149 -149 -3 -8 -7 -9 -11 -2 -7 11 45 96 74 123 9 8 25
32 36 53 19 34 21 35 26 15 5 -18 8 -19 21 -8 9 7 16 21 16 32 0 15 -5 18 -20
13 -15 -5 -18 -3 -14 9 3 9 12 16 19 16 16 0 28 45 20 71 -12 36 -31 18 -92
-83 -88 -150 -213 -385 -213 -401 0 -3 -22 -51 -49 -108 -113 -240 -152 -401
-211 -874 -5 -38 -18 -133 -30 -210 -11 -77 -25 -178 -30 -225 -13 -113 -44
-327 -70 -475 -12 -66 -25 -147 -30 -180 -16 -115 -50 -311 -69 -405 -11 -52
-25 -131 -31 -175 -6 -44 -15 -102 -20 -130 -12 -69 -44 -313 -55 -412 l-6
-53 2814 0 2815 0 20 48 c20 49 46 135 55 187 3 17 -1 149 -9 295 -8 146 -19
335 -24 420 -11 203 -33 261 -162 426 -45 58 -98 151 -98 172 0 12 -120 293
-154 361 -21 40 -24 56 -16 71 14 27 12 137 -4 191 -22 72 -69 158 -126 229
-29 36 -58 77 -66 91 -7 15 -20 91 -29 170 -9 79 -20 167 -26 194 -5 28 -13
95 -19 150 -20 214 -70 445 -120 552 l-39 83 26 20 c52 41 113 131 113 166 0
22 4 32 13 30 6 -1 9 -1 5 1 -12 7 -10 61 2 68 6 3 10 16 10 28 0 12 6 42 14
67 8 25 20 71 27 103 11 51 10 62 -5 87 -16 28 -16 30 4 50 11 11 27 20 36 20
11 0 13 6 9 19 -3 11 4 52 16 92 18 60 20 77 10 104 -16 44 -14 95 3 95 9 0
15 18 18 58 5 51 2 61 -21 89 -20 25 -26 41 -23 70 8 91 -4 148 -35 168 -20
14 -23 21 -17 52 l7 36 -60 -41 c-32 -23 -64 -42 -71 -42 -19 0 -14 29 8 42
24 15 26 34 4 42 -15 6 -15 9 2 29 37 43 74 147 53 147 -5 0 -18 18 -29 40
-11 22 -25 40 -30 40 -6 0 -10 8 -10 18 0 47 -48 70 -100 49 -66 -26 -90 -39
-90 -47 0 -5 12 -51 26 -102 36 -129 42 -165 33 -180 -6 -9 -10 -3 -15 18 -4
21 -15 36 -31 43 -22 10 -28 9 -41 -10 -11 -16 -21 -20 -44 -15 -26 5 -28 4
-17 -15 14 -27 -3 -48 -25 -30 -12 10 -17 9 -25 -8 -7 -11 -17 -18 -26 -15
-16 6 -65 -65 -65 -95 0 -10 -7 -24 -15 -31 -8 -7 -15 -23 -15 -36 0 -13 -4
-24 -10 -24 -13 0 -13 41 0 75 9 23 8 26 -9 20 -11 -3 -26 1 -35 10 -20 20
-21 35 -2 35 34 0 32 48 -4 91 -11 13 -23 29 -28 34 -4 6 -11 17 -15 25 -15
32 -95 135 -120 153 -14 11 -30 16 -37 12 -17 -11 -5 -73 18 -99 11 -12 27
-34 35 -51 15 -29 15 -31 -21 -67 l-36 -38 17 -35 c9 -20 17 -41 17 -47 0 -6
7 -20 17 -30 9 -10 18 -33 19 -51 3 -30 1 -28 -32 26 -20 31 -39 57 -43 57 -4
0 -15 -19 -25 -42 -9 -24 -23 -56 -31 -73 l-13 -30 -7 32 c-10 42 -31 61 -39
35 -8 -23 -52 -46 -61 -32 -10 16 -87 11 -120 -6 -30 -16 -216 -54 -267 -54
-33 0 -44 16 -27 37 16 18 0 33 -66 64 -36 16 -42 16 -62 4 -12 -8 -29 -15
-37 -15 -8 0 -16 -6 -19 -12 -4 -10 -7 -10 -18 0 -11 10 -10 12 4 12 20 0 34
47 18 63 -16 16 -14 47 4 47 8 0 15 7 15 15 0 23 -59 19 -86 -6 -17 -16 -22
-29 -18 -49 7 -31 -11 -40 -83 -40 -41 0 -42 1 -33 26 26 66 -1 90 -62 55 -21
-12 -38 -18 -38 -14 1 13 27 43 37 43 5 0 20 9 33 20 18 16 31 19 59 14 20 -4
41 -11 48 -16 6 -5 24 -8 40 -6 l28 4 -30 8 c-16 5 -38 16 -48 24 -16 14 -19
14 -27 2 -12 -19 -22 -8 -14 14 5 14 15 16 53 10 25 -4 48 -8 50 -10 2 -2 18
5 36 16 l32 20 18 -41 c24 -52 52 -83 93 -99 25 -10 35 -10 46 -1 11 9 20 9
35 2 27 -15 41 -14 41 3 0 7 7 19 15 26 8 7 15 22 15 35 0 30 8 35 37 24 14
-5 30 -6 36 -2 7 4 50 8 97 8 l85 0 1 45 c0 32 -5 50 -18 61 -10 9 -18 21 -18
28 0 22 -72 91 -96 91 -12 0 -26 5 -30 11 -4 8 -27 10 -65 6 -46 -4 -66 -11
-92 -34 -17 -15 -32 -34 -33 -40 -3 -32 -4 -34 -23 -23 -11 5 -29 10 -40 10
-12 0 -21 6 -21 14 0 9 -12 16 -32 18 -21 2 -33 8 -33 18 0 23 -28 60 -45 60
-22 0 -61 30 -55 41 4 5 14 9 24 9 10 0 24 7 31 15 19 23 30 18 30 -14 0 -42
36 -76 97 -90 46 -11 55 -10 94 8 23 12 48 21 53 21 19 0 68 70 62 87 -4 8 -1
33 4 54 10 34 8 43 -10 66 -11 14 -20 39 -20 56 0 24 -3 28 -12 19 -11 -11
-96 -6 -111 8 -4 3 10 23 30 43 75 73 78 76 65 89 -7 7 -12 21 -12 32 0 12 -9
36 -20 54 -11 18 -20 34 -20 37 0 2 17 5 38 7 l37 3 -37 23 c-21 13 -38 30
-38 38 0 23 -69 87 -86 80 -11 -4 -12 -10 -4 -25 13 -26 13 -31 -4 -31 -8 0
-16 7 -20 15 -3 8 -12 15 -21 15 -21 0 -19 20 3 20 16 1 16 1 0 14 -10 7 -18
26 -18 42 -1 16 -11 42 -24 58 -23 27 -24 27 -48 12 -27 -18 -44 -11 -26 11 8
10 6 19 -9 36 -13 15 -18 30 -14 45 l6 24 39 -32 c22 -17 46 -44 54 -61 18
-36 45 -52 72 -44 28 9 25 33 -9 64 -15 14 -31 36 -35 49 -4 12 -14 22 -22 22
-19 0 -18 -10 3 -26 10 -7 14 -16 10 -20 -4 -5 -19 4 -32 18 -16 18 -20 28
-12 31 8 3 4 13 -12 30 -23 25 -23 27 -5 33 76 24 93 42 60 61 -9 5 -16 28
-18 63 l-3 55 -45 3 c-29 2 -52 -3 -65 -12z m-523 -141 c-12 -22 -27 -2 -18
22 5 12 10 13 17 6 7 -7 8 -17 1 -28z m497 -19 c6 -7 25 -16 41 -20 17 -3 30
-12 30 -20 0 -8 6 -17 13 -19 7 -4 8 -6 1 -6 -6 -1 -17 6 -24 14 -7 8 -16 15
-21 15 -5 0 -9 -7 -9 -15 0 -21 -13 -19 -35 5 -14 15 -31 20 -74 20 l-56 0 30
20 c35 23 87 26 104 6z m-304 -75 c-11 -11 -33 -23 -50 -27 -26 -7 -28 -6 -15
7 21 21 52 38 70 39 11 0 10 -5 -5 -19z m-225 -26 c0 -9 -7 -18 -16 -22 -18
-7 -39 11 -30 26 11 17 46 13 46 -4z m75 -54 c8 -14 -12 -27 -70 -45 -33 -11
-66 -24 -72 -29 -9 -6 -13 -5 -13 4 1 25 27 49 52 49 14 0 31 6 37 14 12 14
58 19 66 7z m310 -21 c-27 -12 -43 -12 -25 0 8 5 22 9 30 9 10 0 8 -3 -5 -9z
m231 -99 c-9 -14 -43 -14 -51 0 -4 6 1 17 11 24 16 12 21 12 33 0 7 -7 10 -18
7 -24z m-286 -72 c0 -15 -39 -49 -55 -49 -21 0 -19 22 5 48 19 20 50 21 50 1z
m-450 -70 c0 -5 -4 -9 -10 -9 -5 0 -10 7 -10 16 0 8 5 12 10 9 6 -3 10 -10 10
-16z m763 -24 c35 -31 27 -51 -13 -30 -16 8 -41 15 -55 15 -46 0 -17 32 35 39
3 0 18 -11 33 -24z m47 -90 c0 -26 -14 -33 -25 -15 -9 14 1 40 15 40 5 0 10
-11 10 -25z m-1370 -295 c0 -5 -4 -10 -10 -10 -5 0 -10 5 -10 10 0 6 5 10 10
10 6 0 10 -4 10 -10z m1310 -7 c0 -10 -3 -28 -6 -41 -6 -22 -8 -22 -25 -6 -16
14 -24 15 -45 6 -31 -15 -44 -15 -44 -2 0 5 12 13 28 16 15 4 38 15 51 26 30
23 41 23 41 1z m-1099 -13 c52 -11 108 -20 125 -20 37 0 64 -24 38 -34 -8 -3
-23 -6 -33 -6 -9 0 -29 -12 -43 -27 -27 -30 -45 -73 -30 -73 5 0 31 -15 57
-32 47 -31 54 -33 145 -33 81 0 105 4 148 24 l51 24 33 -25 c18 -14 40 -28 48
-31 8 -4 -6 -4 -32 -1 -51 6 -88 -8 -88 -31 0 -11 13 -15 49 -15 28 0 53 -5
56 -11 4 -6 13 -8 21 -5 7 3 19 0 26 -7 7 -7 63 -30 123 -51 61 -21 117 -45
125 -53 13 -13 13 -14 0 -12 -8 1 -35 -3 -59 -10 -46 -13 -91 -8 -91 10 0 6 9
13 20 16 37 10 12 18 -49 17 -59 -1 -63 0 -101 38 -35 35 -44 40 -71 34 -17
-3 -40 -6 -50 -6 -11 0 -19 -7 -19 -15 0 -17 -25 -20 -35 -5 -3 6 -28 10 -56
10 -36 0 -54 -5 -69 -20 -11 -11 -31 -20 -44 -20 -13 0 -35 -9 -49 -20 -22
-18 -26 -18 -38 -4 -11 14 -9 19 14 36 34 25 34 38 1 38 -22 0 -25 2 -14 15
11 13 8 14 -21 9 -44 -8 -59 -28 -59 -81 0 -30 -4 -43 -14 -43 -8 0 -16 -4
-18 -9 -1 -5 -16 -13 -31 -17 -25 -6 -28 -4 -25 13 4 25 -19 53 -43 53 -12 0
-16 5 -13 15 12 31 -22 13 -70 -36 -47 -49 -49 -50 -63 -29 -8 11 -13 30 -11
43 2 16 -3 23 -20 25 -27 4 -40 -22 -22 -43 10 -12 10 -15 -3 -15 -8 0 -17 9
-20 20 -6 25 -49 27 -68 4 -7 -9 -23 -20 -36 -25 -14 -5 -23 -17 -23 -29 0
-25 -26 -37 -49 -23 -11 7 -15 21 -13 42 2 17 -1 31 -7 31 -17 0 -13 21 7 37
12 10 14 16 5 19 -19 8 3 27 65 55 29 13 55 31 57 40 3 9 16 21 30 27 31 14
25 -6 -10 -32 -14 -10 -25 -23 -25 -29 0 -6 -18 -27 -40 -47 -40 -37 -52 -70
-27 -70 8 0 22 9 32 20 9 10 41 24 71 31 39 9 55 18 60 33 4 11 2 22 -5 24
-18 6 -13 24 14 52 40 40 95 107 95 115 0 4 -18 5 -40 1 l-41 -6 3 33 c1 18
-2 38 -6 45 -5 8 1 12 17 12 13 0 42 13 63 29 47 36 72 37 195 11z m1226 -122
c-3 -8 -6 -5 -6 6 -1 11 2 17 5 13 3 -3 4 -12 1 -19z m211 -118 c6 0 12 -4 12
-9 0 -6 -18 -9 -40 -9 -22 0 -40 4 -40 9 0 5 -7 9 -15 9 -8 0 -15 4 -15 9 0 4
19 5 43 0 23 -4 48 -8 55 -9z m-1765 -57 c-7 -2 -19 -2 -25 0 -7 3 -2 5 12 5
14 0 19 -2 13 -5z m884 -115 c-3 -8 -6 -5 -6 6 -1 11 2 17 5 13 3 -3 4 -12 1
-19z m1930 -95 c-3 -10 -5 -2 -5 17 0 19 2 27 5 18 2 -10 2 -26 0 -35z m22
-80 l-1 -58 -10 42 c-10 38 -6 73 7 73 3 0 4 -26 4 -57z m-222 -255 c-3 -8 -6
-5 -6 6 -1 11 2 17 5 13 3 -3 4 -12 1 -19z m-674 -185 c-7 -2 -19 -2 -25 0 -7
3 -2 5 12 5 14 0 19 -2 13 -5z m857 -263 c0 -16 5 -30 10 -30 6 0 10 -15 10
-34 0 -19 3 -36 8 -38 14 -6 52 -136 52 -178 0 -24 -2 -41 -5 -38 -5 5 -25 91
-28 123 -1 11 -5 25 -9 31 -4 6 -17 42 -28 80 -12 38 -26 77 -31 86 -12 24
-11 28 6 28 10 0 15 -10 15 -30z m-2010 -255 c0 -8 -2 -15 -4 -15 -2 0 -6 7
-10 15 -3 8 -1 15 4 15 6 0 10 -7 10 -15z m-60 -35 c0 -23 -13 -26 -29 -6 -9
11 -9 15 1 19 23 10 28 7 28 -13z m2150 -56 c0 -8 -5 -12 -10 -9 -6 4 -8 11
-5 16 9 14 15 11 15 -7z m-20 -94 c0 -5 -5 -10 -11 -10 -5 0 -7 5 -4 10 3 6 8
10 11 10 2 0 4 -4 4 -10z"/>
<path d="M2675 5201 c-3 -5 -1 -12 4 -15 13 -8 42 4 35 15 -7 12 -31 12 -39 0z"/>
<path d="M2817 5204 c-13 -13 3 -21 32 -16 17 2 28 8 25 13 -6 10 -48 12 -57
3z"/>
<path d="M2780 5169 c0 -5 5 -7 10 -4 6 3 10 8 10 11 0 2 -4 4 -10 4 -5 0 -10
-5 -10 -11z"/>
<path d="M2890 6485 c-10 -12 -10 -15 4 -15 9 0 16 7 16 15 0 8 -2 15 -4 15
-2 0 -9 -7 -16 -15z"/>
<path d="M4320 6395 c-16 -19 3 -45 31 -45 22 0 24 18 5 43 -16 21 -20 21 -36
2z"/>
<path d="M4576 6402 c-3 -5 1 -35 9 -68 10 -45 22 -66 49 -91 20 -18 35 -39
33 -45 -1 -7 5 -12 13 -13 8 0 15 -8 15 -18 0 -22 52 -57 86 -57 16 0 40 13
62 34 l37 34 -29 31 c-16 17 -33 31 -39 31 -5 0 -15 6 -21 14 -10 12 -19 12
-44 4 -18 -6 -37 -17 -44 -25 -21 -27 -34 -5 -27 48 5 41 4 49 -9 49 -9 0 -18
8 -22 18 -8 22 -62 65 -69 54z"/>
<path d="M4400 6374 c0 -8 5 -12 10 -9 6 4 8 11 5 16 -9 14 -15 11 -15 -7z"/>
<path d="M2816 6331 c-4 -7 -5 -15 -2 -18 9 -9 19 4 14 18 -4 11 -6 11 -12 0z"/>
<path d="M4338 6304 c-20 -10 -28 -23 -28 -42 -1 -30 -21 -62 -39 -62 -19 0
-12 -28 11 -44 28 -20 48 -20 48 -1 0 8 -6 15 -14 15 -9 0 -12 8 -8 25 2 14 8
25 13 25 8 0 26 -27 29 -45 2 -18 39 -25 48 -9 7 12 10 12 27 -1 20 -14 20
-15 -2 -21 -11 -3 -23 -15 -26 -26 -5 -16 -11 -18 -43 -12 l-37 7 7 -49 c5
-37 4 -45 -4 -32 -9 14 -14 15 -30 6 -14 -9 -22 -9 -34 2 -24 19 -29 7 -15
-40 12 -39 59 -87 73 -73 3 3 6 19 6 35 0 28 1 28 19 11 11 -10 27 -32 35 -48
13 -25 16 -27 16 -9 0 26 32 56 52 49 9 -4 23 2 32 11 19 19 15 58 -10 85 -13
14 -12 18 11 33 30 20 32 42 5 51 -13 4 -19 15 -19 33 0 23 -5 70 -10 94 -1 8
-66 48 -77 48 -5 -1 -21 -8 -36 -16z"/>
<path d="M4540 5978 c0 -7 7 -24 16 -36 22 -32 58 -26 62 11 3 23 0 27 -22 27
-13 0 -31 3 -40 6 -10 4 -16 1 -16 -8z"/>
<path d="M4654 5913 c-12 -57 -13 -58 -40 -32 -23 21 -27 22 -57 10 -18 -7
-47 -14 -65 -15 -18 -1 -37 -8 -41 -15 -5 -8 -14 -10 -20 -7 -6 4 -11 3 -11
-3 0 -5 6 -11 13 -14 9 -3 9 -7 -2 -20 -19 -23 -31 -21 -31 6 -1 30 -20 52
-52 60 -15 4 -33 14 -42 22 -18 19 -46 9 -46 -16 0 -10 -8 -32 -18 -49 -14
-23 -21 -27 -30 -18 -20 20 -14 -23 9 -67 11 -22 22 -51 23 -65 2 -14 6 -36
10 -50 15 -57 -32 -71 -48 -15 -13 45 -40 58 -51 25 -6 -18 -13 -21 -51 -19
-24 2 -46 0 -50 -4 -4 -4 -2 -7 5 -7 6 0 25 -13 41 -30 15 -16 51 -37 79 -46
58 -19 72 -32 47 -46 -46 -26 -35 -97 17 -114 17 -6 39 -14 48 -18 9 -4 24 1
38 13 l23 20 -19 33 c-12 20 -26 32 -36 30 -13 -2 -16 4 -13 30 3 19 -2 43
-11 57 -20 32 -5 45 38 34 42 -11 78 3 85 34 5 19 9 20 35 11 41 -14 46 -4 21
40 -16 29 -26 36 -46 34 -36 -5 -41 15 -11 45 l26 27 35 -19 c38 -20 54 -14
37 15 -10 15 -8 26 7 57 21 42 23 39 24 -27 1 -41 4 -46 41 -67 50 -28 53 -28
90 1 28 23 29 26 18 57 -14 36 -10 48 10 31 7 -6 31 -14 54 -18 35 -5 43 -12
62 -49 11 -23 21 -45 21 -49 0 -13 62 -84 78 -90 10 -3 35 -17 57 -30 22 -13
44 -21 50 -18 5 3 23 5 38 3 15 -1 34 2 41 8 10 9 15 8 20 -4 3 -8 12 -15 20
-15 7 0 16 -9 19 -19 2 -11 15 -21 28 -23 19 -2 25 -12 34 -53 6 -31 15 -50
24 -50 8 0 20 -20 27 -46 8 -26 21 -52 29 -59 8 -7 15 -27 15 -45 0 -42 22
-62 44 -40 9 9 16 20 16 25 0 5 6 7 14 4 8 -3 24 -1 35 5 25 14 34 1 25 -34
-8 -33 -22 -32 -26 3 l-3 27 -18 -32 c-22 -41 -22 -45 5 -41 17 2 23 -4 30
-30 9 -32 48 -59 69 -46 12 7 12 44 -1 44 -5 0 -9 15 -9 33 2 30 2 30 6 5 7
-47 23 -31 23 22 0 40 -3 48 -15 44 -8 -4 -22 -1 -30 6 -13 11 -13 16 1 41 16
31 12 49 -11 49 -8 0 -18 12 -21 26 -5 18 -11 23 -22 19 -10 -4 -23 3 -34 17
-15 20 -20 22 -39 10 -29 -18 -51 1 -27 24 14 14 13 18 -7 40 -12 13 -29 24
-36 24 -8 0 -25 18 -38 40 -13 21 -32 41 -43 43 -12 4 -18 14 -18 36 0 17 -4
39 -9 49 -6 9 -12 29 -16 45 -7 35 -20 34 -34 -3 -10 -31 -41 -42 -41 -15 0
35 -30 75 -56 75 -22 0 -23 2 -14 20 14 26 3 43 -23 36 -12 -3 -27 0 -35 7
-11 9 -18 7 -33 -12 -11 -13 -19 -19 -19 -13 0 5 -15 15 -32 23 -18 7 -46 21
-61 32 -15 10 -37 17 -47 14 -13 -3 -20 0 -20 8 0 11 -51 45 -66 45 -2 0 -6
-12 -10 -27z m306 -192 c0 -5 -7 -11 -15 -15 -9 -3 -15 0 -15 9 0 8 7 15 15
15 8 0 15 -4 15 -9z m287 -273 c-3 -8 -6 -5 -6 6 -1 11 2 17 5 13 3 -3 4 -12
1 -19z m120 -160 c-3 -7 -5 -2 -5 12 0 14 2 19 5 13 2 -7 2 -19 0 -25z"/>
<path d="M5355 5848 c4 -13 7 -37 6 -54 -2 -64 66 -164 98 -145 35 22 -24 202
-71 215 -37 9 -41 7 -33 -16z"/>
<path d="M4945 5509 c-5 -16 -10 -18 -21 -8 -12 10 -14 4 -14 -32 1 -24 7 -55
14 -68 13 -23 13 -23 19 16 4 22 16 48 27 58 11 10 20 26 20 37 0 25 -37 24
-45 -3z"/>
<path d="M4345 5189 c4 -8 14 -21 22 -31 13 -14 12 -20 -2 -41 -15 -24 -15
-26 1 -35 26 -14 74 24 74 57 0 14 -4 32 -9 40 -7 11 -11 10 -19 -5 -9 -17
-12 -17 -29 -3 -30 26 -47 34 -38 18z"/>
<path d="M1900 4899 c0 -11 5 -17 10 -14 6 3 10 13 10 21 0 8 -4 14 -10 14 -5
0 -10 -9 -10 -21z"/>
<path d="M5440 4439 c-7 -13 -8 -25 -3 -30 6 -6 14 0 21 15 14 31 -3 45 -18
15z"/>
<path d="M2851 4046 c-8 -10 -9 -16 -1 -21 5 -3 13 1 16 10 9 22 -1 29 -15 11z"/>
<path d="M2710 3959 c0 -18 4 -20 30 -14 19 4 30 3 30 -4 0 -6 6 -11 13 -11
16 1 -44 50 -60 50 -7 0 -13 -9 -13 -21z"/>
<path d="M2678 3901 c-13 -22 -42 -28 -53 -11 -9 14 -25 12 -25 -3 0 -7 -6
-22 -14 -32 -14 -19 -15 -19 -35 -1 -28 25 -46 15 -71 -41 l-21 -47 -24 29
-25 30 6 -52 c4 -29 4 -53 0 -53 -3 0 -15 14 -25 31 l-19 31 -27 -56 c-26 -55
-50 -71 -61 -41 -11 29 -19 15 -16 -27 3 -32 7 -37 14 -25 5 10 18 17 29 17
11 0 31 11 45 25 15 15 36 25 54 25 16 0 32 5 36 12 5 8 11 6 19 -6 11 -14 13
-15 18 -2 4 9 2 18 -3 21 -6 4 -10 11 -10 17 0 7 6 6 15 -2 12 -10 15 -10 15
1 1 15 34 59 44 59 3 0 6 -7 6 -15 0 -8 7 -15 15 -15 8 0 15 5 15 10 0 13 38
52 64 65 24 12 62 63 54 71 -4 3 -13 -3 -20 -15z"/>
<path d="M2132 3628 c6 -18 28 -21 28 -4 0 9 -7 16 -16 16 -9 0 -14 -5 -12
-12z"/>
<path d="M2420 3605 c0 -30 25 -34 39 -6 8 15 7 20 -5 25 -27 10 -34 7 -34
-19z"/>
<path d="M2020 3590 c0 -6 -14 -19 -31 -29 -22 -14 -26 -20 -15 -24 8 -3 26 5
40 18 27 25 34 45 16 45 -5 0 -10 -5 -10 -10z"/>
<path d="M1910 3530 c-12 -8 -11 -10 7 -10 12 0 25 5 28 10 8 13 -15 13 -35 0z"/>
<path d="M1833 3493 c-34 -4 -69 -33 -40 -33 9 0 19 5 22 10 3 6 15 10 25 10
10 0 22 5 25 10 3 6 5 9 3 8 -2 0 -17 -3 -35 -5z"/>
<path d="M1600 3400 c0 -5 7 -7 15 -4 8 4 15 8 15 10 0 2 -7 4 -15 4 -8 0 -15
-4 -15 -10z"/>
<path d="M1393 3318 c-25 -12 -39 -38 -20 -38 7 0 25 11 41 25 30 25 19 32
-21 13z"/>
</g>
</svg>
